<svg width="12" height="16" viewBox="0 0 12 16" fill="none" xmlns="http://www.w3.org/2000/svg">
    <path fill-rule="evenodd" clip-rule="evenodd"
        d="M8.43335 0.549805L8.74153 2.04446H11.926V3.59253H0.0546875V2.04446H3.08632L3.3945 0.549805H8.43335ZM8.97992 13.9611L8.97946 13.986C8.97946 14.0349 8.94016 14.0747 8.89209 14.0747H2.93654C2.88785 14.0747 2.84825 14.0349 2.84825 13.986L2.54545 4.52563H1.00391L1.30732 14.0004C1.31517 14.8964 2.04296 15.6228 2.93654 15.6228H8.89209C9.78521 15.6228 10.5128 14.8963 10.5204 14.0003L10.8238 4.52563H9.28225L8.97992 13.9611ZM3.86523 4.52563H5.40632L5.55471 13.1432H4.01363L3.86523 4.52563ZM6.27246 13.1432L6.42085 4.52563H7.96194L7.81355 13.1432H6.27246Z"
        fill="#666666" />
</svg>
